REM DISCID A610E90A
REM COMMENT "ExactAudioCopy v1.0b3"
FILE "usandthem.wav" WAVE
  TRACK 01 AUDIO
    INDEX 00 00:00:00
    INDEX 01 00:00:33
  TRACK 02 AUDIO
    INDEX 01 08:13:33
  TRACK 03 AUDIO
    INDEX 00 13:24:33
    INDEX 01 13:27:33
  TRACK 04 AUDIO
    INDEX 00 21:53:34
    INDEX 01 21:55:33
  TRACK 05 AUDIO
    INDEX 00 27:20:35
    INDEX 01 27:22:33
  TRACK 06 AUDIO
    INDEX 00 31:24:34
    INDEX 01 31:26:33
  TRACK 07 AUDIO
    INDEX 00 38:09:33
    INDEX 01 38:12:33
  TRACK 08 AUDIO
    INDEX 00 43:21:33
    INDEX 01 43:23:33
  TRACK 09 AUDIO
    INDEX 00 49:47:33
    INDEX 01 49:49:33
  TRACK 10 AUDIO
    INDEX 00 61:23:33
    INDEX 01 61:27:33
